<svg xmlns="http://www.w3.org/2000/svg" width="133" height="75" viewBox="0 0 133 75" fill="none"><path d="M30.3016 16.5711V49.2881H36.2816V16.5711H30.3016Z" fill="#FFFFFF"></path><path d="M64.456 20.1936C61.6576 17.7787 58.2077 16.5712 54.1063 16.5712C49.2377 16.5712 45.2892 18.2297 42.2616 21.5449C39.233 24.8608 37.719 28.7809 37.719 33.3035C37.719 37.7118 39.2043 41.612 42.1752 45.0045C45.1454 48.397 49.104 50.0933 54.0489 50.0933C57.6136 50.0933 60.8238 49.0779 63.68 47.0457C66.5351 45.0143 68.5574 42.2544 69.746 38.7657H63.0761C62.2713 40.5294 61.1013 41.9479 59.5688 43.0206C58.0352 44.0944 56.1952 44.6308 54.0489 44.6308C50.8289 44.6308 48.2989 43.4905 46.4588 41.2096C44.6191 38.9294 43.6989 36.2933 43.6989 33.3035C43.6989 31.5408 44.0152 29.8445 44.6478 28.2148C45.2801 26.5857 46.4204 25.1484 48.069 23.9024C49.7167 22.6571 51.7488 22.0337 54.1637 22.0337C58.1888 22.0337 61.1786 24.0273 63.1338 28.0136H69.746C69.0175 25.2159 67.2537 22.6085 64.456 20.1936Z" fill="#FFFFFF"></path><path d="M99.0705 30.4284C99.0316 27.0933 98.3606 24.3722 97.0579 22.2635C94.6042 18.4686 90.8481 16.5711 85.788 16.5711C81.7629 16.5711 78.792 17.9896 76.8757 20.8261H76.7606V6.73859H70.7806V49.2881H76.7606V31.9232C76.7606 28.7808 77.5171 26.3459 79.0317 24.621C80.5457 22.8961 82.5869 22.0336 85.1554 22.0336C90.4454 22.0336 93.0905 25.3495 93.0905 31.9809V49.2881H99.0705V30.4284Z" fill="#FFFFFF"></path><path d="M132.994 31.636C132.419 27.4961 130.608 23.9507 127.56 20.9987C124.513 18.0474 120.899 16.5712 116.722 16.5712C112.198 16.5712 108.345 18.181 105.164 21.4011C101.982 24.6211 100.392 28.5885 100.392 33.3035C100.392 37.8657 101.973 41.8044 105.135 45.1196C108.298 48.4355 112.122 50.0933 116.607 50.0933C118.447 50.0933 120.277 49.7861 122.098 49.1731C123.918 48.5604 125.768 47.4005 127.647 45.6945C129.524 43.9894 130.943 41.852 131.901 39.2835H125.921C125.154 40.7782 123.966 42.0434 122.357 43.0784C120.746 44.1133 118.906 44.6308 116.836 44.6308C111.278 44.6308 107.924 42.2355 106.774 37.4434L132.994 31.636ZM126.209 28.2435L106.372 32.7283C105.835 27.2085 108.499 23.7208 114.364 22.2635C117.086 21.5736 119.51 21.7748 121.638 22.8674C123.765 23.9598 125.289 25.7523 126.209 28.2435Z" fill="#FFFFFF"></path><path d="M28.5224 49.2881V30.3322H28.4971C28.2314 22.6895 21.9686 16.5711 14.261 16.5711C6.55379 16.5711 0.290979 22.6895 0.0253172 30.3322H0V49.2881H6.10483V30.3322H6.13015C6.38973 26.0617 9.92537 22.676 14.261 22.676C18.5967 22.676 22.1323 26.0617 22.3923 30.3322H22.4172V49.2881H28.5224Z" fill="#FFFFFF"></path><path d="M33.2918 15.3936C37.5427 15.3936 40.9886 11.9477 40.9886 7.69678C40.9886 3.44585 37.5427 9.53674e-07 33.2918 9.53674e-07C29.0409 9.53674e-07 25.595 3.44585 25.595 7.69678C25.595 11.9477 29.0409 15.3936 33.2918 15.3936Z" fill="#D58963"></path><path d="M132.139 61.7787L132.991 60.899C132.03 59.9717 131.076 59.5082 130.129 59.5082C129.313 59.5082 128.639 59.7668 128.105 60.2839C127.571 60.8011 127.305 61.4509 127.305 62.233C127.305 62.8322 127.472 63.3649 127.807 63.8317C128.142 64.2986 128.774 64.7715 129.703 65.2508C130.569 65.6924 131.125 66.0583 131.372 66.3483C131.618 66.645 131.742 66.9822 131.742 67.3606C131.742 67.821 131.555 68.2214 131.182 68.562C130.809 68.9026 130.357 69.0731 129.826 69.0731C129.067 69.0731 128.35 68.6913 127.674 67.9284L126.841 68.8742C127.195 69.3286 127.642 69.6847 128.182 69.9433C128.722 70.2019 129.288 70.3312 129.883 70.3312C130.773 70.3312 131.515 70.0382 132.109 69.4515C132.703 68.8648 133 68.1492 133 67.3039C133 66.7047 132.826 66.1656 132.478 65.686C132.124 65.213 131.455 64.7212 130.469 64.2101C129.659 63.7939 129.128 63.4314 128.876 63.1222C128.623 62.8194 128.497 62.501 128.497 62.1665C128.497 61.7881 128.65 61.457 128.957 61.1734C129.263 60.8895 129.631 60.7474 130.062 60.7474C130.738 60.7474 131.431 61.0914 132.139 61.7787ZM123.341 60.9179H125.441V59.7732H123.341V55.951H122.016V59.7732H120.209V60.9179H122.016V70.0665H123.341V60.9179ZM116.312 70.0665H117.636V64.7685C117.636 63.3682 117.494 62.337 117.211 61.6747C116.927 61.0124 116.487 60.4858 115.891 60.0946C115.295 59.7037 114.612 59.5082 113.843 59.5082C113.086 59.5082 112.386 59.6831 111.742 60.0331C111.099 60.3832 110.513 60.9115 109.983 61.618V59.7732H108.658V70.0665H109.983V66.2915C109.983 64.9356 110.046 64.0022 110.172 63.4911C110.373 62.709 110.791 62.0531 111.426 61.5235C112.059 60.9935 112.777 60.7285 113.578 60.7285C114.278 60.7285 114.846 60.9007 115.281 61.2443C115.716 61.5879 116.011 62.1004 116.164 62.7816C116.263 63.1789 116.312 63.9705 116.312 65.1563V70.0665ZM96.5391 65.0237H105.801C105.789 63.6174 105.41 62.4443 104.665 61.5042C103.617 60.1736 102.216 59.5082 100.461 59.5082C98.7562 59.5082 97.3955 60.158 96.3794 61.4573C95.5777 62.4788 95.1767 63.6427 95.1767 64.948C95.1767 66.3358 95.6503 67.58 96.5972 68.6805C97.5444 69.7809 98.8571 70.3312 100.537 70.3312C101.294 70.3312 101.973 70.2161 102.572 69.9858C103.172 69.756 103.712 69.4201 104.192 68.9785C104.672 68.537 105.095 67.9567 105.461 67.2377L104.344 66.6511C103.94 67.3235 103.564 67.8102 103.217 68.112C102.87 68.4135 102.448 68.6555 101.953 68.8374C101.457 69.0197 100.947 69.1109 100.423 69.1109C99.3365 69.1109 98.4241 68.7284 97.6851 67.9642C96.9465 67.1996 96.5644 66.2193 96.5391 65.0237ZM96.6718 63.879C96.9432 62.9331 97.3442 62.2232 97.8745 61.7503C98.6006 61.1008 99.4692 60.7758 100.479 60.7758C101.092 60.7758 101.676 60.9054 102.232 61.164C102.788 61.4225 103.234 61.7631 103.572 62.1858C103.91 62.6081 104.168 63.1728 104.344 63.879H96.6718ZM92.0742 71.145C92.3263 70.4763 92.4526 69.4201 92.4526 67.9756V59.7732H91.128V61.5613C90.5092 60.8294 89.8668 60.3045 89.2008 59.9859C88.5348 59.6675 87.8165 59.5082 87.0462 59.5082C86.1182 59.5082 85.2358 59.7479 84.3993 60.2272C83.5628 60.7066 82.9076 61.3577 82.4344 62.1807C81.9608 63.004 81.7241 63.8918 81.7241 64.8441C81.7241 65.7963 81.9513 66.67 82.4057 67.4646C82.8604 68.2595 83.5044 68.8918 84.3375 69.3617C85.171 69.8316 86.0611 70.0665 87.0083 70.0665C87.8165 70.0665 88.5804 69.8977 89.3001 69.5602C90.0201 69.2229 90.6294 68.7389 91.128 68.108V68.6379C91.128 69.7725 90.9953 70.5945 90.7303 71.1038C90.465 71.6126 90.0214 72.0355 89.3993 72.3717C88.7772 72.7079 88.0146 72.8764 87.112 72.8764C86.1962 72.8764 85.4289 72.712 84.8098 72.3842C84.191 72.0561 83.6861 71.5518 83.2945 70.8706H81.8565C82.2285 71.6801 82.6352 72.2954 83.0771 72.716C83.5183 73.1367 84.0908 73.4719 84.7939 73.722C85.4971 73.9718 86.2904 74.0967 87.1734 74.0967C88.3782 74.0967 89.4094 73.8411 90.2672 73.3304C91.1246 72.8193 91.7271 72.0909 92.0742 71.145ZM91.1941 64.8346C91.1941 66.0266 90.8235 66.9886 90.0825 67.7201C89.3416 68.452 88.3623 68.8175 87.1451 68.8175C85.9403 68.8175 84.9597 68.4486 84.2029 67.7107C83.446 66.9727 83.0676 66.0394 83.0676 64.9102C83.0676 64.1662 83.2503 63.4739 83.6162 62.8336C83.9818 62.1935 84.4868 61.6922 85.1298 61.3294C85.7732 60.9668 86.4703 60.7852 87.2207 60.7852C87.9397 60.7852 88.6114 60.9621 89.2359 61.3152C89.8604 61.6686 90.3428 62.1493 90.6834 62.7579C91.024 63.3666 91.1941 64.0589 91.1941 64.8346ZM77.5805 70.0665H78.8862V59.7732H77.5805V61.6652C77.0634 60.9462 76.4625 60.4068 75.7783 60.0473C75.0937 59.6881 74.3291 59.5082 73.4842 59.5082C72.0209 59.5082 70.7689 60.0348 69.7282 61.088C68.6874 62.1415 68.1673 63.4091 68.1673 64.8913C68.1673 66.405 68.6827 67.6901 69.714 68.7466C70.7452 69.8032 71.9892 70.3312 73.4461 70.3312C74.266 70.3312 75.0215 70.161 75.7121 69.8204C76.4028 69.4798 77.0256 68.9721 77.5805 68.2973V70.0665ZM77.6656 64.9717C77.6656 65.7531 77.4908 66.4556 77.1414 67.0791C76.7913 67.7029 76.2924 68.1971 75.6436 68.5627C74.9945 68.9283 74.3079 69.1109 73.5835 69.1109C72.8651 69.1109 72.1924 68.9266 71.5658 68.5579C70.939 68.1893 70.4397 67.6745 70.0681 67.0129C69.6964 66.3516 69.5104 65.6586 69.5104 64.9339C69.5104 64.2034 69.6947 63.51 70.0634 62.8552C70.432 62.1999 70.9279 61.6912 71.5517 61.3287C72.1755 60.9665 72.8557 60.7852 73.5929 60.7852C74.7393 60.7852 75.7047 61.1856 76.4892 61.9856C77.2737 62.7856 77.6656 63.7811 77.6656 64.9717ZM65.0586 59.3425C65.1687 58.879 65.2241 58.2403 65.2241 57.4268V55.7994H63.5116V58.4013H64.3444C64.3066 58.8304 64.2465 59.1804 64.1644 59.4515C64.0824 59.7226 63.9217 60.0979 63.6821 60.5773L64.4105 60.9935C64.7322 60.3565 64.9483 59.8063 65.0586 59.3425ZM56.9176 63.1222C56.6648 62.8194 56.5382 62.501 56.5382 62.1665C56.5382 61.7881 56.6915 61.457 56.9983 61.1734C57.3048 60.8895 57.6734 60.7474 58.1035 60.7474C58.78 60.7474 59.4723 61.0914 60.1809 61.7787L61.0322 60.899C60.0718 59.9717 59.1179 59.5082 58.1703 59.5082C57.3551 59.5082 56.6807 59.7668 56.147 60.2839C55.6133 60.8011 55.3463 61.4509 55.3463 62.233C55.3463 62.8322 55.5137 63.3649 55.8486 63.8317C56.1838 64.2986 56.8157 64.7715 57.745 65.2508C58.6109 65.6924 59.1672 66.0583 59.4136 66.3483C59.66 66.645 59.7832 66.9822 59.7832 67.3606C59.7832 67.821 59.5969 68.2214 59.2239 68.562C58.8509 68.9026 58.3989 69.0731 57.8679 69.0731C57.109 69.0731 56.3917 68.6913 55.7152 67.9284L54.8828 68.8742C55.2366 69.3286 55.6832 69.6847 56.2236 69.9433C56.7634 70.2019 57.3305 70.3312 57.9242 70.3312C58.8147 70.3312 59.557 70.0382 60.1508 69.4515C60.7446 68.8648 61.0416 68.1492 61.0416 67.3039C61.0416 66.7047 60.8678 66.1656 60.5201 65.686C60.1663 65.213 59.4963 64.7212 58.5103 64.2101C57.7011 63.7939 57.1701 63.4314 56.9176 63.1222ZM53.6531 60.9746L54.3437 59.8583C53.9275 59.625 53.5363 59.5082 53.1707 59.5082C52.6849 59.5082 52.2181 59.6547 51.7705 59.9481C51.3225 60.2414 50.8969 60.6846 50.4931 61.2774V59.7732H49.1405V70.0665H50.4931V66.5849C50.4931 64.7999 50.5752 63.614 50.7392 63.0276C50.9536 62.2644 51.2658 61.7017 51.676 61.3388C52.0858 60.9763 52.5114 60.7947 52.953 60.7947C53.1423 60.7947 53.3756 60.8548 53.6531 60.9746ZM37.5229 65.0237H46.785C46.7722 63.6174 46.3934 62.4443 45.6488 61.5042C44.6006 60.1736 43.1994 59.5082 41.4444 59.5082C39.7397 59.5082 38.3793 60.158 37.3633 61.4573C36.5612 62.4788 36.1605 63.6427 36.1605 64.948C36.1605 66.3358 36.6341 67.58 37.581 68.6805C38.5279 69.7809 39.841 70.3312 41.5204 70.3312C42.2779 70.3312 42.9564 70.2161 43.5562 69.9858C44.1561 69.756 44.6955 69.4201 45.1755 68.9785C45.6552 68.537 46.0781 67.9567 46.4444 67.2377L45.3281 66.6511C44.924 67.3235 44.548 67.8102 44.2006 68.112C43.8533 68.4135 43.432 68.6555 42.9364 68.8374C42.4406 69.0197 41.9305 69.1109 41.4066 69.1109C40.3203 69.1109 39.4079 68.7284 38.669 67.9642C37.9304 67.1996 37.5479 66.2193 37.5229 65.0237ZM37.6553 63.879C37.9267 62.9331 38.3277 62.2232 38.8583 61.7503C39.5844 61.1008 40.4527 60.7758 41.4633 60.7758C42.0757 60.7758 42.6596 60.9054 43.2156 61.164C43.7712 61.4225 44.2182 61.7631 44.5561 62.1858C44.894 62.6081 45.1512 63.1728 45.3281 63.879H37.6553ZM28.4219 73.8317L34.5622 59.7732H33.1525L29.7175 67.6995L26.1798 59.7732H24.7796L29.0045 69.2867L27.023 73.8317H28.4219ZM22.0602 68.0324C22.3913 67.3134 22.5567 66.2443 22.5567 64.8252V59.7732H21.2038V64.5791C21.2038 65.8659 21.1376 66.7078 21.005 67.1051C20.8088 67.6857 20.4537 68.1539 19.9389 68.51C19.4242 68.8665 18.797 69.0447 18.058 69.0447C17.3191 69.0447 16.6828 68.8618 16.1491 68.4958C15.6151 68.1303 15.2536 67.6317 15.0642 67.0011C14.9376 66.5596 14.8745 65.7521 14.8745 64.5791V59.7732H13.5502V64.7307C13.5502 66.1937 13.7156 67.2897 14.0468 68.0182C14.3779 68.7466 14.8792 69.3141 15.551 69.7212C16.2227 70.1279 17.0602 70.3312 18.0628 70.3312C19.0657 70.3312 19.8998 70.1279 20.5651 69.7212C21.2308 69.3141 21.729 68.7514 22.0602 68.0324ZM9.36073 68.7514C10.4004 67.6982 10.9203 66.4272 10.9203 64.9386C10.9203 63.4314 10.4052 62.1493 9.37491 61.0927C8.34466 60.0365 7.1021 59.5082 5.64652 59.5082C4.82726 59.5082 4.07449 59.677 3.38755 60.0142C2.70095 60.3518 2.08017 60.8612 1.52589 61.5424V55.7994H0.201294V70.0665H1.52589V68.1741C2.04877 68.8931 2.65032 69.4326 3.33118 69.7921C4.01137 70.1516 4.77089 70.3312 5.60872 70.3312C7.07037 70.3312 8.32104 69.8049 9.36073 68.7514ZM9.57711 64.9008C9.57711 65.6326 9.3928 66.3263 9.02452 66.9822C8.65657 67.6381 8.16103 68.1475 7.53823 68.51C6.91508 68.8729 6.23557 69.0542 5.49935 69.0542C4.354 69.0542 3.38958 68.6535 2.60643 67.8524C1.82295 67.0517 1.43137 66.0549 1.43137 64.863C1.43137 64.0808 1.60589 63.3777 1.95527 62.7532C2.30431 62.1287 2.80458 61.6322 3.45574 61.2632C4.10724 60.8942 4.79451 60.7096 5.51825 60.7096C6.22949 60.7096 6.89787 60.8942 7.52405 61.2632C8.15023 61.6322 8.64881 62.1476 9.02013 62.8099C9.39145 63.4722 9.57711 64.1693 9.57711 64.9008Z" fill="#D58963"></path></svg>